<svg xmlns="http://www.w3.org/2000/svg" viewBox="-2208 2563 281.3 375"><path d="M-2021 2657.7l.1-91.3 91.1.2-91.2 91.1z" fill="#702340" stroke="#702340" stroke-width="1.007"/><path d="M-2021.9 2658v-90.7l-90.6 90.7h90.6z" fill="#c03035" stroke="#c03035" stroke-width="1.007"/><path d="M-2112.4 2657.4v-90.8l90.5-.2-90.5 91z" fill="#cb5833" stroke="#cb5833" stroke-width="1.007"/><path d="M-2204.3 2657.7h91.4v-91l-91.4 91z" fill="#00aeef" stroke="#00aeef" stroke-width=".99"/><path d="M-2205.3 2749.1l.5-91.1h91.1l-91.6 91.1z" fill="#0e76bc" stroke="#0e76bc" stroke-width="1.007"/><path d="M-2112.8 2749.3v-91.5l-91.6 91.3 91.6.2z" fill="#283891" stroke="#283891" stroke-width="1.007"/><path d="M-2205.7 2841.5h93v-90.9l-93 90.9z" fill="#b1ad4e" stroke="#b1ad4e" stroke-width=".99"/><path d="M-2205.9 2840.9l.5-91.1 91.9.1-92.4 91z" fill="#d4c730" stroke="#d4c730" stroke-width="1.007"/><path d="M-2111.9 2802l.1-90.6 90.5.2-90.6 90.4z" fill="#205450" stroke="#205450" stroke-width="1.007"/><path d="M-2206.2 2933.5l.5-91.1h92.3l-92.8 91.1z" fill="#6c825f" stroke="#6c825f" stroke-width="1.007"/></svg>